<svg xmlns="http://www.w3.org/2000/svg" viewBox="0 0 880 380" width="880" height="380"
     font-family="Inter, -apple-system, BlinkMacSystemFont, 'Segoe UI', Roboto, Helvetica, Arial, 'PingFang SC', 'Hiragino Sans GB', 'Microsoft YaHei', sans-serif"
     role="img" aria-label="架构：CLI → runner → stdio 启动目标 MCP server → spec 校验 × client 适配器 → 一致性矩阵 + 徽章">
  <defs>
    <marker id="ah-d" markerWidth="8" markerHeight="8" refX="6" refY="3" orient="auto">
      <path d="M0,0 L6,3 L0,6 Z" fill="#5A5A66"/>
    </marker>
  </defs>

  <rect x="0" y="0" width="880" height="380" fill="#1D1D1F"/>

  <g stroke="#3A3A44" stroke-width="1.5" fill="none">
    <line x1="150" y1="78" x2="230" y2="78" marker-end="url(#ah-d)"/>
    <line x1="380" y1="78" x2="455" y2="78" marker-end="url(#ah-d)"/>
    <line x1="300" y1="108" x2="300" y2="180" marker-end="url(#ah-d)"/>
    <line x1="430" y1="240" x2="610" y2="240" marker-end="url(#ah-d)"/>
    <line x1="690" y1="300" x2="690" y2="324" marker-end="url(#ah-d)"/>
  </g>

  <g>
    <rect x="40" y="52" width="110" height="52" rx="14" fill="#4DA3FF" fill-opacity="0.16" stroke="#4DA3FF" stroke-width="1.5"/>
    <text x="95" y="76" text-anchor="middle" font-size="13.5" font-weight="600" fill="#9DCBFF">CLI</text>
    <text x="95" y="93" text-anchor="middle" font-size="10.5" font-weight="500" fill="#A1A1A8">run · --json · --badge</text>

    <rect x="232" y="52" width="148" height="52" rx="14" fill="#4DA3FF" fill-opacity="0.16" stroke="#4DA3FF" stroke-width="1.5"/>
    <text x="306" y="76" text-anchor="middle" font-size="13.5" font-weight="600" fill="#9DCBFF">runner</text>
    <text x="306" y="93" text-anchor="middle" font-size="10.5" font-weight="500" fill="#A1A1A8">orchestrate + collect</text>

    <rect x="455" y="52" width="170" height="52" rx="14" fill="#7E9CC0" fill-opacity="0.18" stroke="#7E9CC0" stroke-width="1.5"/>
    <text x="540" y="74" text-anchor="middle" font-size="13" font-weight="600" fill="#B8CDE6">target MCP server</text>
    <text x="540" y="91" text-anchor="middle" font-size="10.5" font-weight="500" fill="#A1A1A8">spawned over stdio</text>
  </g>

  <g>
    <rect x="120" y="180" width="360" height="120" rx="16" fill="#8985FF" fill-opacity="0.10" stroke="#8985FF" stroke-width="1.5"/>
    <text x="140" y="204" font-size="12.5" font-weight="700" fill="#B7B4FF">spec · 校验集</text>

    <rect x="140" y="218" width="148" height="32" rx="10" fill="#8985FF" fill-opacity="0.16" stroke="#8985FF" stroke-width="1.2"/>
    <text x="214" y="238" text-anchor="middle" font-size="11.5" font-weight="600" fill="#B7B4FF">handshake.initialize</text>

    <rect x="300" y="218" width="160" height="32" rx="10" fill="#8985FF" fill-opacity="0.16" stroke="#8985FF" stroke-width="1.2"/>
    <text x="380" y="238" text-anchor="middle" font-size="11.5" font-weight="600" fill="#B7B4FF">tools.list / tools.call</text>

    <rect x="140" y="258" width="320" height="32" rx="10" fill="#8985FF" fill-opacity="0.16" stroke="#8985FF" stroke-width="1.2"/>
    <text x="300" y="278" text-anchor="middle" font-size="11.5" font-weight="600" fill="#B7B4FF">oauth · discovery + WWW-Authenticate（Zero-Touch）</text>
  </g>

  <g>
    <rect x="610" y="180" width="230" height="120" rx="16" fill="#4DA3FF" fill-opacity="0.10" stroke="#4DA3FF" stroke-width="1.5"/>
    <text x="630" y="204" font-size="12.5" font-weight="700" fill="#9DCBFF">client 适配器</text>

    <rect x="630" y="216" width="190" height="24" rx="8" fill="#2DC79A" fill-opacity="0.16" stroke="#2DC79A" stroke-width="1.2"/>
    <text x="640" y="232" font-size="11" font-weight="600" fill="#6FE0BE">Claude Code · 实装 ✓</text>

    <rect x="630" y="244" width="92" height="24" rx="8" fill="#3A3A44" fill-opacity="0.60" stroke="#3A3A44" stroke-width="1.2"/>
    <text x="640" y="260" font-size="11" font-weight="600" fill="#A1A1A8">Cursor · n/a</text>

    <rect x="728" y="244" width="92" height="24" rx="8" fill="#3A3A44" fill-opacity="0.60" stroke="#3A3A44" stroke-width="1.2"/>
    <text x="738" y="260" font-size="11" font-weight="600" fill="#A1A1A8">Gemini · n/a</text>

    <text x="630" y="288" font-size="10.5" font-weight="500" fill="#A1A1A8">stub 返回 n/a，v0.2 接真适配器</text>
  </g>

  <g>
    <rect x="120" y="324" width="640" height="44" rx="14" fill="#2DC79A" fill-opacity="0.14" stroke="#2DC79A" stroke-width="1.5"/>
    <text x="148" y="351" font-size="13" font-weight="700" fill="#6FE0BE">conformance matrix</text>
    <text x="320" y="351" font-size="11.5" font-weight="500" fill="#A1A1A8">client × {behavior, auth} · 终端彩色表 + report.json</text>
    <rect x="612" y="334" width="130" height="24" rx="8" fill="#2DC79A" fill-opacity="0.18" stroke="#2DC79A" stroke-width="1.2"/>
    <text x="677" y="350" text-anchor="middle" font-size="11" font-weight="600" fill="#6FE0BE">badge.svg / .json</text>
  </g>
</svg>
