<svg xmlns="http://www.w3.org/2000/svg" viewBox="0 0 880 300" width="880" height="300"
     font-family="Inter, -apple-system, BlinkMacSystemFont, 'Segoe UI', Roboto, Helvetica, Arial, 'PingFang SC', 'Hiragino Sans GB', 'Microsoft YaHei', sans-serif"
     role="img" aria-label="mcp-conform — 中立的跨客户端 MCP 一致性校验工具">
  <defs>
    <linearGradient id="hg-d" x1="0" y1="0" x2="1" y2="1">
      <stop offset="0" stop-color="#4DA3FF"/>
      <stop offset="1" stop-color="#7E9CC0"/>
    </linearGradient>
    <linearGradient id="hb-d" x1="0" y1="0" x2="0" y2="1">
      <stop offset="0" stop-color="#232326"/>
      <stop offset="1" stop-color="#1D1D1F"/>
    </linearGradient>
  </defs>

  <rect x="0" y="0" width="880" height="300" rx="0" fill="url(#hb-d)"/>
  <rect x="0" y="0" width="880" height="6" fill="url(#hg-d)"/>

  <text x="60" y="120" font-size="52" font-weight="700" fill="#F5F5F7" letter-spacing="-1">mcp-conform</text>
  <text x="62" y="160" font-size="19" font-weight="500" fill="#9DBCE0">中立的跨客户端 MCP 一致性校验工具</text>
  <text x="62" y="190" font-size="14.5" font-weight="400" fill="#A1A1A8">一条命令，输出每客户端的行为 + Zero-Touch OAuth 校验矩阵</text>

  <g font-size="12.5" font-weight="600">
    <rect x="62"  y="216" width="74"  height="26" rx="13" fill="#4DA3FF" fill-opacity="0.16" stroke="#4DA3FF" stroke-width="1.2"/>
    <text x="99"  y="233" text-anchor="middle" fill="#9DCBFF">MCP</text>
    <rect x="146" y="216" width="92"  height="26" rx="13" fill="#7E9CC0" fill-opacity="0.18" stroke="#7E9CC0" stroke-width="1.2"/>
    <text x="192" y="233" text-anchor="middle" fill="#B8CDE6">stdio · CLI</text>
    <rect x="248" y="216" width="120" height="26" rx="13" fill="#2DC79A" fill-opacity="0.16" stroke="#2DC79A" stroke-width="1.2"/>
    <text x="308" y="233" text-anchor="middle" fill="#6FE0BE">parity matrix</text>
  </g>

  <g transform="translate(600,70)">
    <rect x="0" y="0" width="232" height="160" rx="16" fill="#232326" stroke="#3A3A44" stroke-width="1.5"/>
    <text x="16" y="28" font-size="12" font-weight="600" fill="#A1A1A8">client</text>
    <text x="128" y="28" font-size="12" font-weight="600" fill="#A1A1A8">behavior</text>
    <text x="190" y="28" font-size="12" font-weight="600" fill="#A1A1A8">auth</text>
    <line x1="16" y1="40" x2="216" y2="40" stroke="#3A3A44" stroke-width="1"/>

    <text x="16" y="66" font-size="12.5" font-weight="600" fill="#F5F5F7">Claude Code</text>
    <circle cx="138" cy="62" r="7" fill="#2DC79A"/>
    <text x="138" y="66" text-anchor="middle" font-size="10" font-weight="700" fill="#1D1D1F">✓</text>
    <circle cx="196" cy="62" r="7" fill="#E8A317"/>

    <text x="16" y="98" font-size="12.5" font-weight="600" fill="#A1A1A8">Cursor</text>
    <circle cx="138" cy="94" r="7" fill="#3A3A44"/>
    <circle cx="196" cy="94" r="7" fill="#3A3A44"/>

    <text x="16" y="130" font-size="12.5" font-weight="600" fill="#A1A1A8">Gemini</text>
    <circle cx="138" cy="126" r="7" fill="#3A3A44"/>
    <circle cx="196" cy="126" r="7" fill="#3A3A44"/>
  </g>
</svg>
